<svg width="180" height="46" viewBox="0 0 180 46" fill="none" xmlns="http://www.w3.org/2000/svg">
<rect y="0.5" width="45" height="45" rx="22.5" fill="#FC3314"/>
<path d="M15.72 15.77V22.16H25.86V25.46H15.72V33.5H11.82V12.5H27.15V15.77H15.72Z" fill="#222222"/>
<path d="M26.2521 33.8C24.9121 33.8 23.6721 33.54 22.5321 33.02C21.4121 32.48 20.4921 31.73 19.7721 30.77L21.9921 28.1C23.1521 29.7 24.5421 30.5 26.1621 30.5C28.3421 30.5 29.4321 29.21 29.4321 26.63V15.77H21.9621V12.5H33.3321V26.42C33.3321 28.88 32.7321 30.73 31.5321 31.97C30.3321 33.19 28.5721 33.8 26.2521 33.8Z" fill="white"/>
<path d="M62.7599 11.6818H66.6804V27.0227C66.6733 28.429 66.375 29.6399 65.7855 30.6555C65.196 31.6641 64.3722 32.4418 63.3139 32.9886C62.2628 33.5284 61.0376 33.7983 59.6385 33.7983C58.3601 33.7983 57.2095 33.571 56.1868 33.1165C55.1712 32.6548 54.3651 31.973 53.7685 31.071C53.1719 30.169 52.8736 29.0469 52.8736 27.7045H56.8047C56.8118 28.294 56.9396 28.8018 57.1882 29.228C57.4439 29.6541 57.7955 29.9808 58.2429 30.2081C58.6903 30.4354 59.2053 30.549 59.7876 30.549C60.4197 30.549 60.956 30.4176 61.3963 30.1548C61.8366 29.8849 62.1705 29.4872 62.3977 28.9616C62.6321 28.4361 62.7528 27.7898 62.7599 27.0227V11.6818ZM81.2276 26.6179V17.1364H85.0842V33.5H81.3448V30.5916H81.1744C80.805 31.5078 80.1978 32.2571 79.3526 32.8395C78.5146 33.4219 77.4812 33.7131 76.2525 33.7131C75.18 33.7131 74.2319 33.4751 73.408 32.9993C72.5913 32.5163 71.9521 31.8168 71.4904 30.9006C71.0288 29.9773 70.7979 28.8622 70.7979 27.5554V17.1364H74.6545V26.9588C74.6545 27.9957 74.9386 28.8196 75.5067 29.4304C76.0749 30.0412 76.8207 30.3466 77.744 30.3466C78.3121 30.3466 78.8626 30.2081 79.3952 29.9311C79.9279 29.6541 80.3647 29.2422 80.7056 28.6953C81.0536 28.1413 81.2276 27.4489 81.2276 26.6179ZM92.9064 11.6818V33.5H89.0499V11.6818H92.9064ZM96.8722 33.5V17.1364H100.729V33.5H96.8722ZM98.8111 14.8139C98.2003 14.8139 97.6747 14.6115 97.2344 14.2067C96.794 13.7947 96.5739 13.3011 96.5739 12.7259C96.5739 12.1435 96.794 11.6499 97.2344 11.245C97.6747 10.8331 98.2003 10.6271 98.8111 10.6271C99.429 10.6271 99.9545 10.8331 100.388 11.245C100.828 11.6499 101.048 12.1435 101.048 12.7259C101.048 13.3011 100.828 13.7947 100.388 14.2067C99.9545 14.6115 99.429 14.8139 98.8111 14.8139ZM109.403 33.8303C108.366 33.8303 107.432 33.6456 106.601 33.2763C105.778 32.8999 105.124 32.3459 104.641 31.6143C104.165 30.8828 103.927 29.9808 103.927 28.9084C103.927 27.9851 104.098 27.2216 104.439 26.6179C104.78 26.0142 105.245 25.5312 105.834 25.169C106.424 24.8068 107.088 24.5334 107.827 24.3487C108.572 24.157 109.343 24.0185 110.138 23.9332C111.097 23.8338 111.875 23.745 112.471 23.6669C113.068 23.5817 113.501 23.4538 113.771 23.2834C114.048 23.1058 114.187 22.8324 114.187 22.4631V22.3991C114.187 21.5966 113.949 20.9751 113.473 20.5348C112.997 20.0945 112.312 19.8743 111.417 19.8743C110.472 19.8743 109.723 20.0803 109.169 20.4922C108.622 20.9041 108.253 21.3906 108.061 21.9517L104.46 21.4403C104.744 20.446 105.213 19.6151 105.866 18.9474C106.52 18.2727 107.319 17.7685 108.263 17.4347C109.208 17.0938 110.252 16.9233 111.395 16.9233C112.184 16.9233 112.969 17.0156 113.75 17.2003C114.531 17.3849 115.245 17.6903 115.891 18.1165C116.537 18.5355 117.056 19.1072 117.447 19.8317C117.844 20.5561 118.043 21.4616 118.043 22.5483V33.5H114.336V31.2521H114.208C113.974 31.7067 113.643 32.1328 113.217 32.5305C112.798 32.9212 112.269 33.2372 111.63 33.4787C110.998 33.7131 110.256 33.8303 109.403 33.8303ZM110.405 30.9964C111.179 30.9964 111.85 30.8437 112.418 30.5384C112.986 30.2259 113.423 29.8139 113.729 29.3026C114.041 28.7912 114.197 28.2337 114.197 27.63V25.7017C114.077 25.8011 113.871 25.8935 113.579 25.9787C113.295 26.0639 112.976 26.1385 112.621 26.2024C112.265 26.2663 111.914 26.3232 111.566 26.3729C111.218 26.4226 110.916 26.4652 110.66 26.5007C110.085 26.5788 109.57 26.7067 109.116 26.8842C108.661 27.0618 108.302 27.3104 108.04 27.63C107.777 27.9425 107.645 28.3473 107.645 28.8445C107.645 29.5547 107.905 30.0909 108.423 30.4531C108.942 30.8153 109.602 30.9964 110.405 30.9964ZM129.533 33.5V11.6818H143.51V14.995H133.485V20.9183H142.551V24.2315H133.485V33.5H129.533ZM152.877 33.8196C151.279 33.8196 149.894 33.468 148.722 32.7649C147.55 32.0618 146.641 31.0781 145.995 29.8139C145.356 28.5497 145.036 27.0724 145.036 25.3821C145.036 23.6918 145.356 22.2109 145.995 20.9396C146.641 19.6683 147.55 18.6811 148.722 17.978C149.894 17.2749 151.279 16.9233 152.877 16.9233C154.475 16.9233 155.86 17.2749 157.032 17.978C158.204 18.6811 159.109 19.6683 159.749 20.9396C160.395 22.2109 160.718 23.6918 160.718 25.3821C160.718 27.0724 160.395 28.5497 159.749 29.8139C159.109 31.0781 158.204 32.0618 157.032 32.7649C155.86 33.468 154.475 33.8196 152.877 33.8196ZM152.898 30.7301C153.765 30.7301 154.489 30.4922 155.072 30.0163C155.654 29.5334 156.087 28.8871 156.371 28.0774C156.663 27.2678 156.808 26.3658 156.808 25.3714C156.808 24.37 156.663 23.4645 156.371 22.6548C156.087 21.8381 155.654 21.1882 155.072 20.7053C154.489 20.2223 153.765 19.9808 152.898 19.9808C152.011 19.9808 151.272 20.2223 150.683 20.7053C150.1 21.1882 149.663 21.8381 149.372 22.6548C149.088 23.4645 148.946 24.37 148.946 25.3714C148.946 26.3658 149.088 27.2678 149.372 28.0774C149.663 28.8871 150.1 29.5334 150.683 30.0163C151.272 30.4922 152.011 30.7301 152.898 30.7301ZM167.507 28.3651L167.496 23.7095H168.114L173.995 17.1364H178.501L171.268 25.1903H170.469L167.507 28.3651ZM163.991 33.5V11.6818H167.848V33.5H163.991ZM174.261 33.5L168.934 26.0533L171.534 23.3366L178.874 33.5H174.261Z" fill="#FC3314"/>
</svg>
